<svg xmlns="http://www.w3.org/2000/svg" xmlns:xlink="http://www.w3.org/1999/xlink" width="68.5" height="67" viewBox="0 0 68.5 67"><defs><style>.a{fill:#47b57a;}.b{fill:#fff;}.c{filter:url(#a);}</style><filter id="a" x="0" y="0" width="68.5" height="67" filterUnits="userSpaceOnUse"><feOffset dx="-3" input="SourceAlpha"/><feGaussianBlur stdDeviation="0.5" result="b"/><feFlood flood-opacity="0.09"/><feComposite operator="in" in2="b"/><feComposite in="SourceGraphic"/></filter></defs><g transform="translate(-724.26 -13.5)"><g class="c" transform="matrix(1, 0, 0, 1, 724.26, 13.5)"><circle class="a" cx="32" cy="32" r="32" transform="translate(4.5 1.5)"/></g><g transform="translate(740.436 25.596)"><circle class="b" cx="4.577" cy="4.577" r="4.577" transform="translate(18.394)"/><path class="b" d="M39.248,16.231a2.46,2.46,0,0,0-2.962,1.75c-2.289,1.818-5.52,0-7.2-1.616C27.468,14.885,25.448,13,22.352,13a9.242,9.242,0,0,0-8.818,5.52,13.625,13.625,0,0,0-1.212,5.116,2.46,2.46,0,0,0,2.356,2.491,2.722,2.722,0,0,0,2.491-2.356c.673-3.837,2.087-5.587,4.106-5.856-.337,7.809-2.827,12.723-6.53,12.723-3.029,0-4.241-3.1-4.308-3.231a2.454,2.454,0,0,0-3.1-1.481,2.549,2.549,0,0,0-1.414,3.164c.067.269,2.356,6.462,8.886,6.462,4.174,0,7.068-2.491,8.818-6.193.471-.942,1.683-1.01,2.491.673,1.952,4.106,2.019,11.982,1.818,14.675a2.4,2.4,0,0,0,2.423,2.558,2.3,2.3,0,0,0,2.423-2.289c0-.471.673-11.107-2.356-17.166a5.466,5.466,0,0,1,0-4.712,8.937,8.937,0,0,0,3.433.606c4.779,0,6.8-2.895,7.2-4.577A2.524,2.524,0,0,0,39.248,16.231Z" transform="translate(-5.775 -4.249)"/></g></g></svg>