<svg xmlns="http://www.w3.org/2000/svg" width="41.564" height="38.635" viewBox="0 0 41.564 38.635"><defs><style>.a{fill:#47b57a;}</style></defs><g transform="translate(-5 -8.171)"><path class="a" d="M21.959,28.6V43.1a.6.6,0,0,0,.6.6h2.973A31.248,31.248,0,0,1,34.44,45l.035.01c4.258,1.262,10.924.865,15.074-.175C51,44.47,52.218,43.7,52.218,42.43v-.521a2.272,2.272,0,0,0-2.244-2.3h1.911a2.271,2.271,0,0,0,2.244-2.3v-.521a2.271,2.271,0,0,0-2.244-2.3h1.563a2.272,2.272,0,0,0,2.244-2.3v-.521a2.3,2.3,0,0,0-2.244-2.3l-1.592-.191a2.138,2.138,0,0,0,2.268-2q0-.054,0-.108v-.521a2.49,2.49,0,0,0-2.208-2.44,29.054,29.054,0,0,0-5.638.152c-4.892.153-4.757-.57-4.8-.962-.058-.478.159-1.048.924-2.078,1.482-2.336,2.387-3.053,2.634-6.153a9.847,9.847,0,0,0-1.146-5.321A2.9,2.9,0,0,0,41.7,8.184,1.706,1.706,0,0,0,39.712,9.32a9.99,9.99,0,0,1,.084,2.885,12.615,12.615,0,0,1-4.1,4.865c-3.634,2.43-5.915,3.091-8.7,6.256a13.1,13.1,0,0,0-2.05,3.123A2.642,2.642,0,0,1,22.559,28,.6.6,0,0,0,21.959,28.6Z" transform="translate(-9.127)"/><path class="a" d="M8.012,66.3a3.012,3.012,0,0,0,3.012-3.012V47.4A3.012,3.012,0,0,0,5,47.4V63.285A3.012,3.012,0,0,0,8.012,66.3Z" transform="translate(0 -19.491)"/></g></svg>